<?xml version="1.0" encoding="UTF-8" standalone="no"?>
<!-- Created with Inkscape (http://www.inkscape.org/) -->
<svg
   xmlns:svg="http://www.w3.org/2000/svg"
   xmlns="http://www.w3.org/2000/svg"
   version="1.0"
   width="800"
   height="224.179"
   viewBox="0 0 800 224.179"
   id="Layer_1"
   xml:space="preserve"><defs
   id="defs44" />
<path
   d="M 58.946,188.061 L 0,188.061 L 0,129.127 L 58.946,129.127 L 58.946,188.061 z "
   style="fill:#1c7fb5"
   id="path3" />
<path
   d="M 58.946,123.481 L 0,123.481 L 0,64.546 L 58.946,64.546 L 58.946,123.481 z "
   style="fill:#1c7fb5"
   id="path5" />
<path
   d="M 188.051,123.538 L 129.111,123.538 L 129.111,64.603 L 188.051,64.603 L 188.051,123.538 z "
   style="fill:#7ca6c9"
   id="path7" />
<path
   d="M 123.465,155.91 L 64.52,155.91 L 64.52,96.975 L 123.465,96.975 L 123.465,155.91 z "
   style="fill:#1c7fb5"
   id="path9" />
<path
   d="M 188.073,188.178 L 129.127,188.178 L 129.127,129.25 L 188.073,129.25 L 188.073,188.178 z "
   style="fill:#1c7fb5"
   id="path11" />
<path
   d="M 188.089,58.995 L 129.144,58.995 L 129.144,0.061 L 188.089,0.061 L 188.089,58.995 z "
   style="fill:#8dc882"
   id="path13" />
<path
   d="M 317.335,58.934 L 258.39,58.934 L 258.39,0 L 317.335,0 L 317.335,58.934 z "
   style="fill:#8dc882"
   id="path15" />
<path
   d="M 317.335,123.481 L 258.39,123.481 L 258.39,64.546 L 317.335,64.546 L 317.335,123.481 z "
   style="fill:#8dc882"
   id="path17" />
<path
   d="M 252.625,91.683 L 193.677,91.683 L 193.677,32.749 L 252.625,32.749 L 252.625,91.683 z "
   style="fill:#8dc882"
   id="path19" />
<polyline
   fill="#ffffff"
   points="258.39,222.689 265.343,222.689 265.343,195.303 296.716,195.303 296.716,222.689 303.674,222.689   303.674,163.953 296.716,163.953 296.716,188.846 265.343,188.846 265.343,163.953 258.39,163.953 258.39,222.689 "
   id="polyline21"
   style="fill:#ffffff" />
<path
   d="M 350.427,201.785 L 326.454,201.785 L 338.646,172.903 L 338.814,172.903 L 350.427,201.785 M 309.778,222.689 L 317.661,222.689 L 323.715,208.248 L 353.08,208.248 L 359.049,222.689 L 367.184,222.689 L 342.214,163.953 L 335.662,163.953 L 309.778,222.689 z "
   style="fill:#ffffff;fill-rule:evenodd"
   id="path23" />
<path
   d="M 407.113,201.785 L 383.137,201.785 L 395.329,172.903 L 395.497,172.903 L 407.113,201.785 M 366.467,222.689 L 374.348,222.689 L 380.4,208.248 L 409.765,208.248 L 415.735,222.689 L 423.869,222.689 L 398.899,163.953 L 392.347,163.953 L 366.467,222.689 z "
   style="fill:#ffffff;fill-rule:evenodd"
   id="path25" />
<path
   d="M 479.883,189.84 L 459.399,189.84 L 459.399,196.304 L 472.925,196.304 L 472.925,214.314 C 470.723,215.402 468.342,216.236 465.779,216.828 C 463.218,217.413 460.727,217.706 458.319,217.718 C 453.477,217.679 449.234,216.608 445.596,214.513 C 441.964,212.409 439.129,209.535 437.099,205.878 C 435.069,202.221 434.038,198.039 434.005,193.321 C 434.049,188.532 435.096,184.304 437.143,180.653 C 439.198,177.002 441.999,174.146 445.546,172.08 C 449.092,170.014 453.131,168.965 457.655,168.925 C 460.688,168.937 463.608,169.517 466.408,170.666 C 469.212,171.82 471.634,173.478 473.67,175.644 L 478.884,170.168 C 476.081,167.384 472.896,165.4 469.33,164.208 C 465.778,163.009 462.046,162.429 458.154,162.463 C 452.218,162.501 446.884,163.799 442.144,166.357 C 437.391,168.905 433.618,172.49 430.831,177.097 C 428.041,181.709 426.61,187.118 426.546,193.322 C 426.593,199.498 427.949,204.896 430.614,209.509 C 433.28,214.122 436.962,217.702 441.657,220.271 C 446.35,222.834 451.764,224.143 457.902,224.181 C 461.744,224.187 465.517,223.735 469.241,222.845 C 472.961,221.945 476.508,220.57 479.881,218.712 L 479.881,189.84"
   style="fill:#ffffff"
   id="path27" />
<path
   d="M 526.727,201.785 L 502.754,201.785 L 514.944,172.903 L 515.109,172.903 L 526.727,201.785 M 486.078,222.689 L 493.956,222.689 L 500.011,208.248 L 529.376,208.248 L 535.351,222.689 L 543.48,222.689 L 518.515,163.953 L 511.958,163.953 L 486.078,222.689 z "
   style="fill:#ffffff;fill-rule:evenodd"
   id="path29" />
<line
   fill="none"
   stroke="#ffffff"
   stroke-width="5.9625"
   stroke-miterlimit="3.864"
   x1="547.573"
   y1="202.778"
   x2="567.88397"
   y2="202.778"
   id="line31"
   style="fill:none;stroke:#ffffff;stroke-width:5.9625001;stroke-miterlimit:3.86400008" />
<polyline
   fill="#ffffff"
   points="578.88,222.689 585.832,222.689 585.832,195.303 617.205,195.303 617.205,222.689 624.17,222.689   624.17,163.953 617.205,163.953 617.205,188.846 585.832,188.846 585.832,163.953 578.88,163.953 578.88,222.689 "
   id="polyline33"
   style="fill:#ffffff" />
<polyline
   fill="#ffffff"
   points="637.911,222.689 676.312,222.689 676.312,216.219 644.863,216.219 644.863,195.303   672.819,195.303 672.819,188.846 644.863,188.846 644.863,170.422 674.812,170.422 674.812,163.953 637.911,163.953   637.911,222.689 "
   id="polyline35"
   style="fill:#ffffff" />
<polyline
   fill="#ffffff"
   points="687.155,222.689 720.996,222.689 720.996,216.219 694.107,216.219 694.107,163.953   687.155,163.953 687.155,222.689 "
   id="polyline37"
   style="fill:#ffffff" />
<line
   fill="none"
   stroke="#ffffff"
   stroke-width="6.9581"
   stroke-miterlimit="3.864"
   x1="732.11603"
   y1="222.689"
   x2="732.11603"
   y2="163.953"
   id="line39"
   style="fill:none;stroke:#ffffff;stroke-width:6.95809984;stroke-miterlimit:3.86400008" />
<path
   d="M 783.244,201.785 L 759.276,201.785 L 771.465,172.903 L 771.634,172.903 L 783.244,201.785 M 742.598,222.689 L 750.479,222.689 L 756.537,208.248 L 785.9,208.248 L 791.871,222.689 L 800,222.689 L 775.029,163.953 L 768.479,163.953 L 742.598,222.689 z "
   style="fill:#ffffff;fill-rule:evenodd"
   id="path41" />
</svg>